PathFileType	4	(X/Y/Z)	6_coords_data.trc
DataRate	CameraRate	NumFrames	NumMarkers	Units	OrigDataRate	OrigDataStartFrame	OrigNumFrames
30.0	30.0	7	21	m	30.0	57	75
Frame#	Time	THUMB_TIP	THUMB_IP	THUMB_MCP	THUMB_CMC	INDEX_TIP	INDEX_DIP	INDEX_PIP	INDEX_MCP	MIDDLE_TIP	MIDDLE_DIP	MIDDLE_PIP	MIDDLE_MCP	RING_TIP	RING_DIP	RING_PIP	RING_MCP	PINKY_TIP	PINKY_DIP	PINKY_PIP	PINKY_MCP	WRIST
X1	Y1	Z1	X2	Y2	Z2	X3	Y3	Z3	X4	Y4	Z4	X5	Y5	Z5	X6	Y6	Z6	X7	Y7	Z7	X8	Y8	Z8	X9	Y9	Z9	X10	Y10	Z10	X11	Y11	Z11	X12	Y12	Z12	X13	Y13	Z13	X14	Y14	Z14	X15	Y15	Z15	X16	Y16	Z16	X17	Y17	Z17	X18	Y18	Z18	X19	Y19	Z19	X20	Y20	Z20	X21	Y21	Z21
56	1.8666666666666667	0.05862260055541992	-0.08856849670410157	0.9990150146484374	0.04478300094604492	-0.06949579620361328	1.0139099731445314	0.02099090003967285	-0.0612041015625	1.035719970703125	0.0051726999282836915	-0.030213600158691407	1.04827001953125	0.06636689758300782	-0.043898101806640624	0.9419840087890625	0.04517990112304687	-0.047489799499511716	0.9473720092773438	0.023129499435424805	-0.04990119934082031	0.9584149780273438	-0.001512030005455017	-0.04684349822998047	0.9918480224609375	0.07082610321044921	-0.019257200241088866	0.9374019775390625	0.047581199645996095	-0.021395200729370116	0.93939599609375	0.018768400192260743	-0.02367140007019043	0.9503189697265625	-0.008361089706420898	-0.02308209991455078	0.9849949951171875	0.06794129943847656	0.004415880203247071	0.9427760009765624	0.046662200927734376	0.005204599857330322	0.9452630004882813	0.01958139991760254	0.004067490100860596	0.9554760131835938	-0.007176209926605224	-3.209950029850001e-05	0.9889329833984375	0.051876899719238284	0.02359779930114746	0.9708699951171875	0.0337130012512207	0.0276161003112793	0.9691389770507812	0.01469610023498535	0.027984100341796873	0.9739429931640625	-0.0031667299270629876	0.020436899185180664	0.9972789916992187	-0.025499500274658204	-0.006091259956359864	1.067530029296875
57	1.9	0.06109349822998047	-0.08571730041503907	0.998135986328125	0.04680009841918945	-0.06701809692382812	1.0131199951171874	0.02294029998779297	-0.05928099822998047	1.034989990234375	0.006419879913330078	-0.029123600006103516	1.04777001953125	0.06280110168457032	-0.04526160049438477	0.9343829956054688	0.04257780075073242	-0.04819499969482422	0.9431649780273438	0.022106700897216797	-0.049873100280761716	0.9569929809570312	4.5697498135260005e-06	-0.046134300231933593	0.99172998046875	0.06727619934082031	-0.018660600662231446	0.928094970703125	0.04460449981689453	-0.02084989929199219	0.9343359985351563	0.01743630027770996	-0.023115800857543944	0.9488519897460937	-0.007334259986877442	-0.022486700057983398	0.9852589721679688	0.06444740295410156	0.007620689868927002	0.9337739868164062	0.04359109878540039	0.0073322300910949705	0.9405999755859376	0.018356800079345703	0.005305940151214599	0.9544860229492188	-0.0060753002166748045	0.00040147399902343707	0.989125	0.051630298614501954	0.026767099380493164	0.9661539916992188	0.0329385986328125	0.029625299453735352	0.9672130126953125	0.014586899757385254	0.02912150001525879	0.9738359985351562	-0.001848919987678527	0.02079789924621582	0.9974710083007813	-0.025011499404907225	-0.005750080108642578	1.0673199462890626
58	1.9333333333333333	0.06387900161743164	-0.08251509857177734	0.9978289794921875	0.04865940093994141	-0.06439849853515625	1.0129000244140625	0.024590099334716797	-0.05758599853515625	1.0346600341796874	0.007531819820404052	-0.02825979995727539	1.04725	0.05921129989624024	-0.04674509811401367	0.9284290161132812	0.040134899139404295	-0.048949100494384765	0.9401749877929687	0.02129360008239746	-0.04996969985961914	0.9562310180664062	0.000930827021598815	-0.04571889877319336	0.9916329956054688	0.06316619873046875	-0.018470800399780274	0.9202130126953125	0.04172560119628906	-0.020674400329589844	0.9302890014648437	0.016308900833129882	-0.02284309959411621	0.9480089721679688	-0.006455900192260743	-0.022097799301147462	0.9853150024414062	0.060059501647949216	0.010363200187683105	0.9259140014648437	0.04023009872436523	0.009117719650268554	0.9365889892578125	0.017134000778198242	0.006285379886627198	0.9536179809570312	-0.005045710086822509	0.000590303003787994	0.9891119995117188	0.05022529983520508	0.02939389991760254	0.9619080200195312	0.031552600860595706	0.03132909965515137	0.9650479736328125	0.013979700088500977	0.029938600540161134	0.9732949829101563	-0.001105980038642883	0.02099090003967285	0.9975709838867187	-0.02478529930114746	-0.0056800198554992675	1.067199951171875
59	1.9666666666666666	0.06461799621582032	-0.08220040130615235	0.9981110229492187	0.04938880157470703	-0.06400769805908203	1.0129400024414061	0.02515019989013672	-0.05709299850463867	1.0346700439453125	0.007931169986724853	-0.02781570053100586	1.0471400146484375	0.0550453987121582	-0.0496974983215332	0.92368701171875	0.03733269882202148	-0.050913898468017575	0.9377760009765626	0.020232500076293944	-0.05090530014038086	0.9557420043945313	0.001793730020523071	-0.04545140075683594	0.9917990112304688	0.0569370002746582	-0.01899180030822754	0.9120759887695312	0.03728350067138672	-0.021203800201416014	0.92602001953125	0.014450499534606934	-0.023061100006103515	0.94702099609375	-0.005783539772033691	-0.021956600189208985	0.985427001953125	0.054319698333740236	0.01270170021057129	0.9189390258789063	0.03630450057983398	0.010512100219726563	0.9331329956054687	0.015918800354003906	0.006902959823608399	0.953010986328125	-0.00407829999923706	0.000561325013637542	0.9892949829101563	0.04857849884033203	0.031938299179077145	0.9578300170898437	0.030467199325561523	0.03267819976806641	0.9633889770507813	0.013706899642944336	0.03052440071105957	0.9729940185546875	-0.00038153100013732906	0.020940200805664062	0.9975999755859375	-0.024457000732421876	-0.005591479778289795	1.06702001953125
60	2.0	0.06359289932250976	-0.08351480102539062	0.9972369995117187	0.04895650100708008	-0.06477369689941406	1.0122000122070312	0.025098800659179688	-0.057330101013183594	1.034010009765625	0.007990729808807374	-0.027910499572753905	1.0468900146484375	0.05095500183105469	-0.05201369857788086	0.9201539916992187	0.03449639892578125	-0.052398300170898436	0.9359439697265625	0.018643899917602538	-0.05162779998779297	0.9552080078125	0.0017282400131225582	-0.04546279907226562	0.9914550170898437	0.05157289886474609	-0.019542200088500977	0.9067550048828125	0.03356629943847656	-0.021613500595092774	0.9232919921875	0.012726900100708007	-0.023284299850463867	0.9462979736328125	-0.005914050102233887	-0.022010000228881835	0.9853670043945313	0.04923410034179688	0.01398490047454834	0.9141890258789063	0.03290090179443359	0.01117870044708252	0.9306279907226562	0.014519000053405761	0.007087470054626465	0.9521530151367188	-0.0036708099842071534	0.00036948201060295105	0.9891370239257813	0.04661529922485352	0.033461299896240235	0.95431298828125	0.02898360061645508	0.03337749862670898	0.9617830200195312	0.01311769962310791	0.03062660026550293	0.972458984375	-1.8372499616810003e-06	0.020682300567626953	0.99739697265625	-0.0243125	-0.005556459903717041	1.0668900146484375
61	2.033333333333333	0.06204840087890625	-0.08435289764404297	0.995822021484375	0.04822520065307617	-0.06525430297851563	1.0108599853515625	0.024644599914550782	-0.0572588996887207	1.0331400146484375	0.007753940105438233	-0.027853300094604492	1.04618994140625	0.04796450042724609	-0.052906200408935546	0.9177789916992187	0.03235589981079102	-0.05293920135498047	0.9346439819335938	0.017529600143432616	-0.05182519912719727	0.9545819702148437	0.001398380041122436	-0.045419200897216794	0.9910230102539063	0.04804119873046875	-0.019577600479125976	0.903760009765625	0.031053300857543945	-0.02167180061340332	0.9216329956054687	0.011434499740600585	-0.023274599075317384	0.9457550048828125	-0.006020470142364502	-0.021960500717163087	0.9850859985351562	0.04497439956665039	0.014327500343322754	0.9109530029296875	0.029796199798583986	0.011255800247192383	0.9287830200195313	0.013115500450134277	0.006975160121917724	0.9515479736328125	-0.0037417500019073483	0.000193481996655464	0.9889390258789063	0.04442319869995117	0.03451210021972656	0.9515269775390625	0.027311500549316407	0.033726699829101564	0.9600830078125	0.011998600006103515	0.030499099731445312	0.971885009765625	2.0662099123001002e-05	0.020440200805664062	0.9969310302734375	-0.02456019973754883	-0.005488120079040528	1.06668994140625
62	2.066666666666667	0.06144940185546875	-0.08438600158691406	0.99497998046875	0.047898998260498045	-0.06513569641113282	1.0101900024414063	0.02464859962463379	-0.056968601226806644	1.0325899658203126	0.007820799827575683	-0.027568199157714843	1.0459100341796874	0.044971500396728516	-0.054276901245117186	0.9159580078125	0.03014189910888672	-0.053905601501464846	0.9335380249023437	0.016207300186157226	-0.052442798614501955	0.9541170043945313	0.0012603000402450562	-0.04551340103149414	0.9910399780273438	0.043429798126220706	-0.019846700668334962	0.900739013671875	0.027653900146484375	-0.021927499771118165	0.9198469848632812	0.009439109802246094	-0.02343120002746582	0.9450380249023438	-0.006393919944763184	-0.02220439910888672	0.9847849731445313	0.040378700256347655	0.015126299858093262	0.9080800170898438	0.026539800643920898	0.01162880039215088	0.927176025390625	0.011270999908447266	0.006986149787902832	0.950875	-0.004114299774169922	-4.915699828416001e-06	0.9885889892578125	0.04166690063476562	0.03542430114746094	0.948906005859375	0.025143999099731446	0.03404790115356445	0.95872998046875	0.010632100105285645	0.030466299057006836	0.970989990234375	-0.000359730988740921	0.020159799575805663	0.9963319702148438	-0.024471399307250976	-0.005593830108642578	1.0665799560546876
